<?xml version="1.0" encoding="utf-8"?>
<!-- Generator: Adobe Illustrator 24.1.2, SVG Export Plug-In . SVG Version: 6.00 Build 0)  -->
<svg version="1.1" id="Layer_1" focusable="false" xmlns="http://www.w3.org/2000/svg" xmlns:xlink="http://www.w3.org/1999/xlink"
	 x="0px" y="0px" viewBox="0 0 512 512" style="enable-background:new 0 0 512 512;" xml:space="preserve">
<style type="text/css">
	.st0{fill:#FF007A;}
</style>
<path class="st0" d="M502.7,368.1L379.9,245.3l56-56l57.4-57.4c25-25,25-65.5,0-90.5l-22.7-22.7C458.1,6.2,441.7,0,425.3,0
	s-32.8,6.2-45.2,18.7l-57.4,57.4l0,0l-56,56L230.6,96L143.9,9.3C137.7,3.1,129.6,0,121.4,0S105.2,3.1,99,9.3L9.3,99
	c-12.4,12.4-12.4,32.5,0,44.9L109.5,244l22.6,22.6l-113,113L0.3,487.1C-2,500.3,8.3,512,21.2,512c1.2,0,2.5-0.1,3.7-0.3l107.4-18.8
	l112.9-113l122.8,122.8c6.2,6.2,14.3,9.3,22.4,9.3s16.2-3.1,22.4-9.3l89.7-89.7C515.1,400.6,515.1,380.5,502.7,368.1z M414,52.7
	c4.1-4.1,8.8-4.7,11.3-4.7s7.2,0.6,11.3,4.7l22.7,22.7c4.1,4.1,4.7,8.8,4.7,11.3s-0.6,7.2-4.7,11.3l-51.7,51.7l-45.3-45.3L414,52.7z
	 M143.4,210.1l-88.7-88.7l66.7-66.7l38.9,38.9l-22,22c-6.2,6.2-6.2,16.4,0,22.6l11.3,11.3c6.2,6.2,16.4,6.2,22.6,0l22-22l2.3,2.3
	l36.1,36.1l-66.7,66.7L143.4,210.1z M109.1,448.2l-55,9.6l9.6-54.9l264.6-264.6l45.3,45.3L109.1,448.2L109.1,448.2z M390.6,457.2
	L279.2,345.9l66.7-66.7l38.4,38.4l-22,22c-6.2,6.2-6.2,16.4,0,22.6l11.3,11.3c6.2,6.2,16.4,6.2,22.6,0l22-22l38.9,38.9L390.6,457.2z
	"/>
</svg>
